<?xml version="1.0" encoding="utf-8"?>
<!-- Generator: Adobe Illustrator 23.0.0, SVG Export Plug-In . SVG Version: 6.00 Build 0)  -->
<svg version="1.1" xmlns="http://www.w3.org/2000/svg" xmlns:xlink="http://www.w3.org/1999/xlink" x="0px" y="0px"
	 viewBox="0 0 1065 320" style="enable-background:new 0 0 1065 320;" xml:space="preserve">
<style type="text/css">
	.st0{display:none;}
	.st1{fill:url(#SVGID_1_);}
	.st2{fill:url(#SVGID_2_);}
	.st3{fill:url(#SVGID_3_);}
	.st4{fill:url(#SVGID_4_);}
	.st5{fill:url(#SVGID_5_);}
	.st6{fill:url(#SVGID_6_);}
	.st7{fill:url(#SVGID_7_);}
	.st8{fill:url(#SVGID_8_);}
	.st9{fill:url(#SVGID_9_);}
	.st10{fill:url(#SVGID_10_);}
	.st11{fill:url(#SVGID_11_);}
	.st12{fill:url(#SVGID_12_);}
	.st13{fill:url(#SVGID_13_);}
	.st14{fill:url(#SVGID_14_);}
	.st15{fill:url(#SVGID_15_);}
	.st16{fill:url(#SVGID_16_);}
	.st17{fill:url(#SVGID_17_);}
	.st18{fill:url(#SVGID_18_);}
	.st19{fill:url(#SVGID_19_);}
	.st20{fill:url(#SVGID_20_);}
	.st21{fill:url(#SVGID_21_);}
	.st22{fill:url(#SVGID_22_);}
	.st23{fill:url(#SVGID_23_);}
	.st24{fill:url(#SVGID_24_);}
	.st25{fill:url(#SVGID_25_);}
	.st26{fill:url(#SVGID_26_);}
	.st27{fill:url(#SVGID_27_);}
	.st28{fill:url(#SVGID_28_);}
	.st29{fill:url(#SVGID_29_);}
	.st30{fill:url(#SVGID_30_);}
	.st31{fill:url(#SVGID_31_);}
	.st32{fill:url(#SVGID_32_);}
	.st33{fill:url(#SVGID_33_);}
	.st34{fill:url(#SVGID_34_);}
	.st35{fill:url(#SVGID_35_);}
	.st36{fill:url(#SVGID_36_);}
	.st37{fill:url(#SVGID_37_);}
	.st38{fill:url(#SVGID_38_);}
	.st39{fill:url(#SVGID_39_);}
	.st40{fill:url(#SVGID_40_);}
	.st41{fill:url(#SVGID_41_);}
	.st42{fill:url(#SVGID_42_);}
</style>
<g id="Layer_2" class="st0">
</g>
<g id="Layer_1">
	<linearGradient id="SVGID_1_" gradientUnits="userSpaceOnUse" x1="8.1008" y1="117.1037" x2="121.2039" y2="117.1037">
		<stop  offset="0" style="stop-color:#004C5E"/>
		<stop  offset="1" style="stop-color:#044F61"/>
	</linearGradient>
	<path class="st1" d="M120.36,63.35L120.36,63.35c-1.99-3.26-6.55-3.72-9.15-0.91L8.1,173.62l0,0L119.35,70.59
		C121.37,68.73,121.79,65.7,120.36,63.35z"/>
	<linearGradient id="SVGID_2_" gradientUnits="userSpaceOnUse" x1="8.1008" y1="158.3508" x2="140.5233" y2="158.3508">
		<stop  offset="0" style="stop-color:#004C5E"/>
		<stop  offset="1" style="stop-color:#044F61"/>
	</linearGradient>
	<path class="st2" d="M139.67,94.95L139.67,94.95c-2-3.27-6.56-3.74-9.18-0.94L8.1,224.53l0,0l130.59-122.32
		C140.7,100.33,141.11,97.3,139.67,94.95z"/>
	<linearGradient id="SVGID_3_" gradientUnits="userSpaceOnUse" x1="8.1008" y1="178.9744" x2="150.1822" y2="178.9744">
		<stop  offset="0" style="stop-color:#004C5E"/>
		<stop  offset="1" style="stop-color:#044F61"/>
	</linearGradient>
	<path class="st3" d="M149.33,110.75L149.33,110.75c-2-3.27-6.57-3.75-9.2-0.95L8.1,249.99l0,0l140.25-131.97
		C150.36,116.13,150.76,113.1,149.33,110.75z"/>
	<linearGradient id="SVGID_4_" gradientUnits="userSpaceOnUse" x1="8.1008" y1="55.1257" x2="92.2246" y2="55.1257">
		<stop  offset="0" style="stop-color:#004C5E"/>
		<stop  offset="1" style="stop-color:#044F61"/>
	</linearGradient>
	<path class="st4" d="M91.39,15.96l-0.15-0.25C90.21,14.03,88.37,13,86.4,13h0c-1.61,0-3.15,0.68-4.22,1.88L8.1,97.25l0,0
		l82.25-74.11C92.38,21.31,92.82,18.3,91.39,15.96z"/>
	<linearGradient id="SVGID_5_" gradientUnits="userSpaceOnUse" x1="8.1008" y1="75.8602" x2="101.8826" y2="75.8602">
		<stop  offset="0" style="stop-color:#004C5E"/>
		<stop  offset="1" style="stop-color:#044F61"/>
	</linearGradient>
	<path class="st5" d="M8.1,122.71l91.91-83.74c2.03-1.85,2.46-4.87,1.03-7.21l0,0c-1.99-3.25-6.54-3.69-9.11-0.87L8.1,122.71
		L8.1,122.71z"/>
	<linearGradient id="SVGID_6_" gradientUnits="userSpaceOnUse" x1="8.1008" y1="42.3975" x2="66.3524" y2="42.3975">
		<stop  offset="0" style="stop-color:#004C5E"/>
		<stop  offset="1" style="stop-color:#044F61"/>
	</linearGradient>
	<path class="st6" d="M8.1,71.79l56.38-49.27c3.78-3.3,1.44-9.52-3.57-9.52h0c-1.59,0-3.09,0.69-4.13,1.9L8.1,71.79L8.1,71.79z"/>
	<linearGradient id="SVGID_7_" gradientUnits="userSpaceOnUse" x1="24.468" y1="13.0007" x2="24.468" y2="13.0007">
		<stop  offset="0" style="stop-color:#004C5E"/>
		<stop  offset="1" style="stop-color:#044F61"/>
	</linearGradient>
	<path class="st7" d="M24.47,13"/>
	<linearGradient id="SVGID_8_" gradientUnits="userSpaceOnUse" x1="8.1008" y1="29.3679" x2="8.1008" y2="29.3679">
		<stop  offset="0" style="stop-color:#004C5E"/>
		<stop  offset="1" style="stop-color:#044F61"/>
	</linearGradient>
	<path class="st8" d="M8.1,29.37"/>
	<linearGradient id="SVGID_9_" gradientUnits="userSpaceOnUse" x1="8.1008" y1="29.6697" x2="40.5473" y2="29.6697">
		<stop  offset="0" style="stop-color:#004C5E"/>
		<stop  offset="1" style="stop-color:#044F61"/>
	</linearGradient>
	<path class="st9" d="M35.49,13L35.49,13c-1.59,0-3.1,0.75-4.05,2.03L8.1,46.34l0,0L38.64,22C42.37,19.02,40.27,13,35.49,13z"/>
	<linearGradient id="SVGID_10_" gradientUnits="userSpaceOnUse" x1="8.1008" y1="96.4814" x2="111.5435" y2="96.4814">
		<stop  offset="0" style="stop-color:#004C5E"/>
		<stop  offset="1" style="stop-color:#044F61"/>
	</linearGradient>
	<path class="st10" d="M110.7,47.55L110.7,47.55c-1.99-3.26-6.55-3.7-9.13-0.9L8.1,148.16l0,0l101.58-93.38
		C111.71,52.92,112.13,49.89,110.7,47.55z"/>
	<linearGradient id="SVGID_11_" gradientUnits="userSpaceOnUse" x1="8.1008" y1="198.5185" x2="160.8074" y2="198.5185">
		<stop  offset="0" style="stop-color:#004C5E"/>
		<stop  offset="1" style="stop-color:#044F61"/>
	</linearGradient>
	<path class="st11" d="M98.4,192.55v-6.37c0-2.45,3.21-3.36,4.5-1.28l0,0c0.83,1.33,2.68,1.55,3.79,0.44l53.4-53.4
		c0.8-0.8,0.94-2.03,0.36-2.99l-3.78-6.18c-0.84-1.37-2.74-1.57-3.85-0.4L8.1,275.44l0,0l89.5-81.09
		C98.11,193.89,98.4,193.23,98.4,192.55z"/>
	<linearGradient id="SVGID_12_" gradientUnits="userSpaceOnUse" x1="270.1948" y1="197.4901" x2="360.474" y2="197.4901">
		<stop  offset="0" style="stop-color:#004C5E"/>
		<stop  offset="1" style="stop-color:#044F61"/>
	</linearGradient>
	<path class="st12" d="M360.47,158.15L360.47,158.15c-0.01-5.12-6.31-7.56-9.77-3.78l-80.51,88.08l0,0l88.43-80.12
		C359.81,161.26,360.48,159.74,360.47,158.15z"/>
	<linearGradient id="SVGID_13_" gradientUnits="userSpaceOnUse" x1="8.1008" y1="137.7265" x2="130.8637" y2="137.7265">
		<stop  offset="0" style="stop-color:#004C5E"/>
		<stop  offset="1" style="stop-color:#044F61"/>
	</linearGradient>
	<path class="st13" d="M8.1,199.07L129.02,86.4c2.01-1.87,2.43-4.91,0.99-7.25v0c-2-3.27-6.56-3.73-9.17-0.93L8.1,199.07L8.1,199.07
		z"/>
	<linearGradient id="SVGID_14_" gradientUnits="userSpaceOnUse" x1="307.4692" y1="280.6468" x2="360.7639" y2="280.6468">
		<stop  offset="0" style="stop-color:#004C5E"/>
		<stop  offset="1" style="stop-color:#044F61"/>
	</linearGradient>
	<path class="st14" d="M360.76,259.67L360.76,259.67c-0.01-4.98-6.2-7.27-9.45-3.5L307.47,307l0,0l51.38-43.2
		C360.07,262.77,360.77,261.26,360.76,259.67z"/>
	<linearGradient id="SVGID_15_" gradientUnits="userSpaceOnUse" x1="270.5119" y1="248.1715" x2="360.619" y2="248.1715">
		<stop  offset="0" style="stop-color:#004C5E"/>
		<stop  offset="1" style="stop-color:#044F61"/>
	</linearGradient>
	<path class="st15" d="M360.62,208.91L360.62,208.91c-0.01-5.12-6.31-7.56-9.77-3.78l-80.34,87.91l0,0l88.26-79.95
		C359.95,212.03,360.62,210.51,360.62,208.91z"/>
	<linearGradient id="SVGID_16_" gradientUnits="userSpaceOnUse" x1="52.9109" y1="284.596" x2="98.4001" y2="284.596">
		<stop  offset="0" style="stop-color:#004C5E"/>
		<stop  offset="1" style="stop-color:#044F61"/>
	</linearGradient>
	<path class="st16" d="M98.4,267.48L98.4,267.48c0-4.92-6.14-7.17-9.32-3.4L52.91,307l0,0l43.54-35.42
		C97.68,270.58,98.4,269.07,98.4,267.48z"/>
	<linearGradient id="SVGID_17_" gradientUnits="userSpaceOnUse" x1="8.8951" y1="256.6131" x2="98.4001" y2="256.6131">
		<stop  offset="0" style="stop-color:#004C5E"/>
		<stop  offset="1" style="stop-color:#044F61"/>
	</linearGradient>
	<path class="st17" d="M98.4,216.66c0-5.1-6.3-7.51-9.7-3.71L8.9,302.14l0,0l0,0l87.73-81.4C97.76,219.68,98.4,218.2,98.4,216.66
		L98.4,216.66z"/>
	<linearGradient id="SVGID_18_" gradientUnits="userSpaceOnUse" x1="78.366" y1="297.6418" x2="98.4001" y2="297.6418">
		<stop  offset="0" style="stop-color:#004C5E"/>
		<stop  offset="1" style="stop-color:#044F61"/>
	</linearGradient>
	<path class="st18" d="M98.4,292.83L98.4,292.83c0-4.43-5.7-6.23-8.25-2.61L78.37,307l0,0l17.76-10.24
		C97.53,295.95,98.4,294.45,98.4,292.83z"/>
	<linearGradient id="SVGID_19_" gradientUnits="userSpaceOnUse" x1="160.9883" y1="176.8624" x2="360.2567" y2="176.8624">
		<stop  offset="0" style="stop-color:#004C5E"/>
		<stop  offset="1" style="stop-color:#044F61"/>
	</linearGradient>
	<path class="st19" d="M268.8,175.3L268.8,175.3l89.74-89.09c1.1-1.09,1.72-2.58,1.72-4.14v0c-0.01-5.24-6.41-7.78-10.02-3.98
		L160.99,277.46l0,0l0,0L268.8,175.3L268.8,175.3z"/>
	<linearGradient id="SVGID_20_" gradientUnits="userSpaceOnUse" x1="282.0129" y1="267.8653" x2="360.6915" y2="267.8653">
		<stop  offset="0" style="stop-color:#004C5E"/>
		<stop  offset="1" style="stop-color:#044F61"/>
	</linearGradient>
	<path class="st20" d="M282.01,307l76.82-68.53c1.19-1.06,1.87-2.58,1.86-4.17v0c-0.01-5.09-6.29-7.49-9.7-3.71L282.01,307
		L282.01,307z"/>
	<linearGradient id="SVGID_21_" gradientUnits="userSpaceOnUse" x1="199.2036" y1="272.9564" x2="214.371" y2="272.9564">
		<stop  offset="0" style="stop-color:#004C5E"/>
		<stop  offset="1" style="stop-color:#044F61"/>
	</linearGradient>
	<path class="st21" d="M213.11,265.6l-13.69,13.69c-0.46,0.46-0.14,1.26,0.52,1.26h5.56c0.26,0,0.5-0.14,0.63-0.36l8.13-13.69
		C214.7,265.75,213.72,264.98,213.11,265.6z"/>
	<linearGradient id="SVGID_22_" gradientUnits="userSpaceOnUse" x1="270.0362" y1="172.1503" x2="360.4015" y2="172.1503">
		<stop  offset="0" style="stop-color:#004C5E"/>
		<stop  offset="1" style="stop-color:#044F61"/>
	</linearGradient>
	<path class="st22" d="M360.4,132.76L360.4,132.76c-0.01-5.12-6.31-7.56-9.77-3.78l-80.6,88.17l0,0l88.52-80.21
		C359.73,135.88,360.41,134.36,360.4,132.76z"/>
	<linearGradient id="SVGID_23_" gradientUnits="userSpaceOnUse" x1="181.1936" y1="251.9291" x2="237.3594" y2="251.9291">
		<stop  offset="0" style="stop-color:#004C5E"/>
		<stop  offset="1" style="stop-color:#044F61"/>
	</linearGradient>
	<path class="st23" d="M181.19,280.54l48.01-39.6c0.3-0.25,0.56-0.55,0.75-0.88l6.89-11.61c2.08-3.51-2.69-7.01-5.41-3.97
		L181.19,280.54L181.19,280.54z"/>
	<linearGradient id="SVGID_24_" gradientUnits="userSpaceOnUse" x1="269.8776" y1="146.8093" x2="360.3289" y2="146.8093">
		<stop  offset="0" style="stop-color:#004C5E"/>
		<stop  offset="1" style="stop-color:#044F61"/>
	</linearGradient>
	<path class="st24" d="M269.88,191.86l88.6-80.29c1.18-1.07,1.85-2.59,1.85-4.18v0c-0.01-5.12-6.31-7.56-9.77-3.78L269.88,191.86
		L269.88,191.86z"/>
	<linearGradient id="SVGID_25_" gradientUnits="userSpaceOnUse" x1="332.9246" y1="293.5558" x2="360.8363" y2="293.5558">
		<stop  offset="0" style="stop-color:#004C5E"/>
		<stop  offset="1" style="stop-color:#044F61"/>
	</linearGradient>
	<path class="st25" d="M332.92,307l25.81-17.97c1.32-0.92,2.1-2.42,2.1-4.03l0,0c-0.01-4.67-5.94-6.67-8.78-2.96L332.92,307
		L332.92,307z"/>
	<linearGradient id="SVGID_26_" gradientUnits="userSpaceOnUse" x1="349.8953" y1="306.9993" x2="349.8953" y2="306.9993">
		<stop  offset="0" style="stop-color:#004C5E"/>
		<stop  offset="1" style="stop-color:#044F61"/>
	</linearGradient>
	<path class="st26" d="M349.9,307"/>
	<linearGradient id="SVGID_27_" gradientUnits="userSpaceOnUse" x1="360.8678" y1="296.0267" x2="360.8678" y2="296.0267">
		<stop  offset="0" style="stop-color:#004C5E"/>
		<stop  offset="1" style="stop-color:#044F61"/>
	</linearGradient>
	<path class="st27" d="M360.87,296.03"/>
	<linearGradient id="SVGID_28_" gradientUnits="userSpaceOnUse" x1="150.0042" y1="155.8041" x2="360.1839" y2="155.8041">
		<stop  offset="0" style="stop-color:#004C5E"/>
		<stop  offset="1" style="stop-color:#044F61"/>
	</linearGradient>
	<path class="st28" d="M360.18,56.62L360.18,56.62c-0.01-5.24-6.4-7.81-10.04-4.03L150,260.82l0,0L358.39,60.84
		C359.54,59.74,360.19,58.21,360.18,56.62z"/>
	<linearGradient id="SVGID_29_" gradientUnits="userSpaceOnUse" x1="240.4978" y1="44.9929" x2="304.4822" y2="44.9929">
		<stop  offset="0" style="stop-color:#004C5E"/>
		<stop  offset="1" style="stop-color:#044F61"/>
	</linearGradient>
	<polygon class="st29" points="265.45,35.07 240.5,76.99 304.48,13 287.51,13 	"/>
	<linearGradient id="SVGID_30_" gradientUnits="userSpaceOnUse" x1="270.3533" y1="222.8303" x2="360.5465" y2="222.8303">
		<stop  offset="0" style="stop-color:#004C5E"/>
		<stop  offset="1" style="stop-color:#044F61"/>
	</linearGradient>
	<path class="st30" d="M270.35,267.75l88.35-80.04c1.18-1.07,1.85-2.59,1.85-4.18v0c-0.01-5.12-6.31-7.56-9.77-3.78L270.35,267.75
		L270.35,267.75z"/>
	<linearGradient id="SVGID_31_" gradientUnits="userSpaceOnUse" x1="111.0189" y1="168.8307" x2="169.4568" y2="168.8307">
		<stop  offset="0" style="stop-color:#004C5E"/>
		<stop  offset="1" style="stop-color:#044F61"/>
	</linearGradient>
	<path class="st31" d="M168.64,142.34c-1.96-3.21-6.49-3.58-8.95-0.73l-48.67,56.37l0,0l56.5-48.52
		C169.59,147.68,170.06,144.67,168.64,142.34L168.64,142.34z"/>
	<linearGradient id="SVGID_32_" gradientUnits="userSpaceOnUse" x1="130.5117" y1="121.1996" x2="348.5608" y2="121.1996">
		<stop  offset="0" style="stop-color:#004C5E"/>
		<stop  offset="1" style="stop-color:#044F61"/>
	</linearGradient>
	<path class="st32" d="M186.07,168.44c-0.33,0.56-1.13,0.56-1.47,0.01l0,0c-0.3-0.5-1-0.55-1.38-0.11l-52.7,61.07l0,0L347.14,20.95
		c3-2.88,0.96-7.95-3.2-7.95h-3.59c-1.23,0-2.4,0.49-3.27,1.35L191,160.42c-0.27,0.27-0.51,0.57-0.7,0.9L186.07,168.44z"/>
	<linearGradient id="SVGID_33_" gradientUnits="userSpaceOnUse" x1="120.7651" y1="184.5848" x2="179.1137" y2="184.5848">
		<stop  offset="0" style="stop-color:#004C5E"/>
		<stop  offset="1" style="stop-color:#044F61"/>
	</linearGradient>
	<path class="st33" d="M120.77,213.69l56.41-48.43c2.07-1.78,2.54-4.79,1.12-7.11l0,0c-1.96-3.21-6.49-3.58-8.95-0.73L120.77,213.69
		L120.77,213.69z"/>
	<linearGradient id="SVGID_34_" gradientUnits="userSpaceOnUse" x1="140.2577" y1="135.2541" x2="360.1114" y2="135.2541">
		<stop  offset="0" style="stop-color:#004C5E"/>
		<stop  offset="1" style="stop-color:#044F61"/>
	</linearGradient>
	<path class="st34" d="M140.26,245.11L140.26,245.11L358.32,35.46c1.15-1.11,1.8-2.63,1.79-4.23v0c-0.01-5.25-6.41-7.81-10.05-4.03
		L140.26,245.11z"/>
	<linearGradient id="SVGID_35_" gradientUnits="userSpaceOnUse" x1="203.0726" y1="76.4333" x2="329.9377" y2="76.4333">
		<stop  offset="0" style="stop-color:#004C5E"/>
		<stop  offset="1" style="stop-color:#044F61"/>
	</linearGradient>
	<polygon class="st35" points="312.97,13 228.02,97.95 203.07,139.87 329.94,13 	"/>
	<linearGradient id="SVGID_36_" gradientUnits="userSpaceOnUse" x1="27.4543" y1="271.7539" x2="98.4001" y2="271.7539">
		<stop  offset="0" style="stop-color:#004C5E"/>
		<stop  offset="1" style="stop-color:#044F61"/>
	</linearGradient>
	<path class="st36" d="M27.45,307l69.07-60.81c1.19-1.05,1.87-2.56,1.87-4.15v0c0-5.07-6.26-7.46-9.64-3.68L27.45,307L27.45,307z"/>
</g>
<g id="Layer_3">
	<g>
		<g>
			<linearGradient id="SVGID_37_" gradientUnits="userSpaceOnUse" x1="486.5468" y1="485.6339" x2="902.3912" y2="69.7895">
				<stop  offset="0.3628" style="stop-color:#C2D6DA"/>
				<stop  offset="0.7108" style="stop-color:#467E8B"/>
				<stop  offset="0.9015" style="stop-color:#004C5E"/>
			</linearGradient>
			<path class="st37" d="M495.1,191.97V297h-41.28v-8.64c-6.34,7.1-15.74,10.56-28.8,10.56c-27.46,0-50.69-20.74-50.69-54.53
				s23.23-54.34,50.69-54.34c11.52,0,20.35,2.88,26.69,9.02v-7.1H495.1z M452.48,244.39c0-13.63-7.49-20.54-17.09-20.54
				s-17.09,6.91-17.09,20.54s7.49,20.74,17.09,20.74S452.48,258.02,452.48,244.39z"/>
			<linearGradient id="SVGID_38_" gradientUnits="userSpaceOnUse" x1="486.5468" y1="485.6339" x2="902.3912" y2="69.7895">
				<stop  offset="0.3628" style="stop-color:#C2D6DA"/>
				<stop  offset="0.7108" style="stop-color:#467E8B"/>
				<stop  offset="0.9015" style="stop-color:#004C5E"/>
			</linearGradient>
			<path class="st38" d="M514.68,161.45c0-12.48,10.18-22.08,26.11-22.08c15.94,0,26.11,8.83,26.11,21.31
				c0,13.25-10.18,22.85-26.11,22.85C524.86,183.53,514.68,173.93,514.68,161.45z M519.1,191.97h43.39V297H519.1V191.97z"/>
			<linearGradient id="SVGID_39_" gradientUnits="userSpaceOnUse" x1="486.5468" y1="485.6339" x2="902.3912" y2="69.7895">
				<stop  offset="0.3628" style="stop-color:#C2D6DA"/>
				<stop  offset="0.7108" style="stop-color:#467E8B"/>
				<stop  offset="0.9015" style="stop-color:#004C5E"/>
			</linearGradient>
			<path class="st39" d="M586.49,154.54h43.39V297h-43.39V154.54z"/>
			<linearGradient id="SVGID_40_" gradientUnits="userSpaceOnUse" x1="486.5468" y1="485.6339" x2="902.3912" y2="69.7895">
				<stop  offset="0.3628" style="stop-color:#C2D6DA"/>
				<stop  offset="0.7108" style="stop-color:#467E8B"/>
				<stop  offset="0.9015" style="stop-color:#004C5E"/>
			</linearGradient>
			<path class="st40" d="M774.65,244.39c0,33.79-23.23,54.53-50.69,54.53c-13.06,0-22.46-3.46-28.8-10.56V297h-41.28V154.54h43.39
				v44.54c6.34-6.14,15.17-9.02,26.69-9.02C751.42,190.05,774.65,210.6,774.65,244.39z M730.68,244.39
				c0-13.63-7.49-20.54-17.09-20.54s-17.09,6.91-17.09,20.54s7.49,20.74,17.09,20.74S730.68,258.02,730.68,244.39z"/>
			<linearGradient id="SVGID_41_" gradientUnits="userSpaceOnUse" x1="486.5468" y1="485.6339" x2="902.3912" y2="69.7895">
				<stop  offset="0.3628" style="stop-color:#C2D6DA"/>
				<stop  offset="0.7108" style="stop-color:#467E8B"/>
				<stop  offset="0.9015" style="stop-color:#004C5E"/>
			</linearGradient>
			<path class="st41" d="M788.09,241.13c0-33.98,27.65-58.75,65.28-58.75c37.63,0,65.09,24.77,65.09,58.75
				c0,33.99-27.46,58.75-65.09,58.75C815.74,299.88,788.09,275.11,788.09,241.13z M873.91,241.13c0-14.21-8.45-24.19-20.54-24.19
				c-12.1,0-20.74,9.98-20.74,24.19c0,14.21,8.64,24.19,20.74,24.19C865.46,265.32,873.91,255.34,873.91,241.13z"/>
			<linearGradient id="SVGID_42_" gradientUnits="userSpaceOnUse" x1="486.5468" y1="485.6339" x2="902.3912" y2="69.7895">
				<stop  offset="0.3628" style="stop-color:#C2D6DA"/>
				<stop  offset="0.7108" style="stop-color:#467E8B"/>
				<stop  offset="0.9015" style="stop-color:#004C5E"/>
			</linearGradient>
			<path class="st42" d="M1003.7,297l-14.4-22.46L973.17,297h-47.04l39.74-52.03l-38.59-52.99h48.96l14.98,22.27l15.74-22.27h45.5
				l-38.59,51.07l39.55,53.95H1003.7z"/>
		</g>
	</g>
</g>
</svg>
